<svg width="32" height="32" viewBox="0 0 32 32" fill="none" xmlns="http://www.w3.org/2000/svg">
<g clip-path="url(#clip0_5117_7974)">
<path d="M11.2162 7.48047L6.47891 16.0029C6.28023 16.3608 6.53942 16.8002 6.94864 16.8008H9.6713L7.97696 18.373L10.226 17.2061C10.2724 17.182 10.3222 17.1648 10.3734 17.1543L11.6264 16.8984C11.6636 16.8909 11.7017 16.8867 11.7397 16.8867H14.4818L15.9828 16.9668C16.0379 16.9698 16.093 16.9813 16.1449 17L16.7738 17.2266C17.4332 17.556 17.85 18.2297 17.85 18.9668V19.3906L17.8266 23.9863L12.9975 31.6943L12.9897 31.708H7.49063L7.51895 31.6641L12.9223 23.1934H4.56094C1.02182 23.1927 -1.16505 19.3319 0.655671 16.2969L5.96231 7.45215L5.9711 7.43848H11.2397L11.2162 7.48047ZM24.4809 0.0439453L19.0775 8.51465H27.4389C30.9784 8.51474 33.1649 12.3759 31.3441 15.4111L26.0375 24.2559L26.0287 24.2695H21.3334L21.432 19.8262C21.4353 19.6799 21.4953 19.5406 21.599 19.4375L22.517 18.5264C22.6246 18.4197 22.7708 18.3606 22.9223 18.3623L23.5346 18.3701C23.6983 18.3722 23.8535 18.4445 23.9594 18.5693L24.5053 19.2139C24.6095 19.3366 24.7613 19.409 24.9223 19.4131L26.5131 19.4541C26.8233 19.462 27.0822 19.2183 27.0932 18.9082L27.2367 14.8379C27.2474 14.5308 27.0112 14.2718 26.7045 14.2539L25.143 14.1631C24.9749 14.1535 24.8114 14.2196 24.6967 14.3428L24.265 14.8066C24.1532 14.927 23.9946 14.9932 23.8305 14.9873L23.3344 14.9697C23.146 14.9628 22.9736 14.8615 22.8744 14.7012L22.2572 13.7041C22.1541 13.5374 21.9718 13.4355 21.7758 13.4355L16.5063 13.4365C15.545 13.4366 14.5946 13.6403 13.7182 14.0352L12.519 14.5752C12.4892 14.5886 12.46 14.6047 12.433 14.623L11.9232 14.9688L9.71915 14.9072L9.67032 14.9053L9.69669 14.8633L19.0024 0.0136719L19.0102 0H24.5092L24.4809 0.0439453Z" fill="#F07C0D"/>
</g>
<defs>
<clipPath id="clip0_5117_7974">
<rect width="32" height="32" fill="white"/>
</clipPath>
</defs>
</svg>
