<?xml version="1.0" encoding="UTF-8"?>
<svg id="Layer_2" data-name="Layer 2" xmlns="http://www.w3.org/2000/svg" viewBox="0 0 110.08 39.75">
  <defs>
    <style>
      .cls-1 {
        fill: #f07c0d;
      }
    </style>
  </defs>
  <g id="Layer_1-2" data-name="Layer 1">
    <g>
      <path class="cls-1" d="M12.36,8.24l-5.22,9.39c-.22.39.07.88.52.88h3l-1.87,1.73,2.48-1.29c.05-.03.11-.05.16-.06l1.38-.28s.08-.01.13-.01h3.02l1.65.09c.06,0,.12.01.18.04l.69.25c.73.36,1.19,1.11,1.19,1.92v.47l-.03,5.06-5.32,8.49h0s-6.06.01-6.06.01l.03-.05,5.95-9.33H5.02c-3.9,0-6.31-4.25-4.3-7.6l5.85-9.74v-.02h5.81l-.03.05ZM26.97.05l-5.95,9.33h9.21c3.9,0,6.31,4.25,4.3,7.6l-5.85,9.74v.02h-5.18l.11-4.9c0-.16.07-.32.18-.43l1.01-1c.12-.12.28-.18.45-.18h.67c.18,0,.35.09.47.23l.6.71c.11.14.28.22.46.22l1.75.05c.34,0,.63-.26.64-.6l.16-4.48c.01-.34-.25-.62-.59-.64l-1.72-.1c-.19-.01-.37.06-.49.2l-.48.51c-.12.13-.3.21-.48.2l-.55-.02c-.21,0-.4-.12-.51-.29l-.68-1.1c-.11-.18-.32-.29-.53-.29h-5.8c-1.06,0-2.11.23-3.07.66l-1.32.59s-.06.03-.09.05l-.56.38-2.43-.07h-.05s.03-.05.03-.05L20.94.01h0s6.06-.01,6.06-.01l-.03.05Z"/>
      <g>
        <path class="cls-1" d="M40.08,25.92c.22,0,.4-.08.56-.23.15-.16.23-.34.23-.56s-.08-.42-.23-.57c-.16-.15-.34-.23-.56-.23s-.42.08-.57.23c-.15.16-.23.35-.23.57s.08.4.23.56c.15.16.35.23.57.23Z"/>
        <path class="cls-1" d="M40.44,27.01c0,.23.08.44.25.61.16.17.37.26.6.26s.44-.09.62-.26c.17-.17.25-.37.25-.6s-.09-.44-.26-.61c-.17-.17-.38-.26-.61-.26s-.44.09-.6.26c-.16.17-.25.37-.25.61Z"/>
        <path class="cls-1" d="M38.84,27.88c.24,0,.44-.09.62-.26.17-.16.25-.37.25-.6s-.09-.44-.26-.61c-.17-.17-.38-.26-.61-.26s-.44.08-.61.25c-.16.17-.25.38-.25.61s.08.44.25.61c.16.17.37.26.6.26Z"/>
        <path class="cls-1" d="M45.1,33.36v-4.83h-1.38v4.59c0,.6-.14,1.07-.41,1.38s-.61.46-1.04.46-.76-.15-1.03-.46c-.28-.31-.42-.78-.42-1.38v-4.59h-1.39v4.59c0,.6-.14,1.07-.41,1.38-.27.31-.61.46-1.04.46s-.76-.15-1.03-.46c-.28-.31-.42-.78-.42-1.38v-4.59h-1.37v4.83c0,1.08-.39,1.6-1.21,1.6h-1.13v-6.43h-1.71c-2.84,0-4.29,1.44-4.29,4.27v2.16h-1.45c-2.23,0-3.31-1.07-3.31-3.28v-1.64h-1.37v1.64c0,1.47.41,2.63,1.21,3.44s1.97,1.22,3.47,1.22h2.83v-3.54c0-1.03.23-1.78.7-2.23.46-.45,1.21-.68,2.22-.68h.31v6.46h2.52c.9,0,1.56-.36,1.95-1.08.48.72,1.18,1.08,2.07,1.08.95,0,1.67-.4,2.15-1.18.21.35.48.62.81.83.39.24.84.36,1.32.36.89,0,1.59-.36,2.08-1.07.4.71,1.05,1.07,1.95,1.07h.5v-1.38h-.5c-.8,0-1.19-.52-1.19-1.6Z"/>
        <path class="cls-1" d="M75.26,30.02c-.98-.97-2.23-1.46-3.74-1.46h-.91l4.83-4.23h-1.92l-4.84,4.26-.04.04v1.31h2.83c1.16,0,2.1.36,2.81,1.07.71.71,1.07,1.68,1.08,2.87v1.1s-20.31,0-20.31,0v-2.27c0-1.23-.37-2.25-1.09-3.04-.73-.79-1.69-1.19-2.85-1.19-1.08,0-2.01.38-2.77,1.14s-1.16,1.7-1.16,2.78c0,1.14.4,2.09,1.17,2.84.78.74,1.78,1.12,2.98,1.12h2.29c-.08.53-.33.99-.73,1.38-.44.42-1.02.64-1.71.64-.45,0-.89-.1-1.29-.28-.4-.19-.73-.45-.97-.77l-.08-.11-1,.93.07.09c.37.48.86.86,1.45,1.13.58.27,1.21.4,1.86.4,1.07,0,1.96-.35,2.64-1.03s1.04-1.45,1.17-2.38h21.74l-.02-2.54c-.01-1.55-.51-2.82-1.49-3.79ZM53.67,34.97h-2.33c-.82,0-1.5-.24-2-.71-.51-.47-.78-1.09-.78-1.86,0-.7.25-1.3.74-1.79.49-.49,1.1-.74,1.81-.74.77,0,1.37.25,1.85.76.47.51.71,1.18.71,2v2.34Z"/>
        <path class="cls-1" d="M105.02,25.92c.22,0,.4-.08.56-.23.15-.16.23-.34.23-.56s-.08-.42-.23-.57c-.16-.15-.34-.23-.56-.23s-.42.08-.57.23c-.15.16-.23.35-.23.57s.08.4.23.56c.15.16.35.23.57.23Z"/>
        <path class="cls-1" d="M105.37,27.01c0,.24.09.44.26.61.17.17.38.26.61.26s.44-.09.62-.26c.17-.17.25-.37.25-.6s-.09-.44-.26-.61c-.17-.17-.38-.26-.61-.26s-.44.08-.6.25c-.17.18-.26.38-.26.62Z"/>
        <path class="cls-1" d="M103.78,27.88c.24,0,.44-.09.62-.26.17-.16.25-.37.25-.6s-.09-.44-.26-.61c-.17-.17-.38-.26-.61-.26s-.44.08-.61.25c-.16.17-.25.38-.25.61s.08.44.25.61c.16.17.37.26.6.26Z"/>
        <path class="cls-1" d="M108.71,28.53v4.59c0,.6-.14,1.07-.42,1.38-.27.31-.61.46-1.03.46s-.77-.15-1.04-.46c-.27-.31-.41-.78-.41-1.38v-4.59h-1.39v4.59c0,.6-.14,1.07-.42,1.38s-.61.46-1.03.46-.77-.15-1.04-.46c-.27-.31-.41-.78-.41-1.38v-4.59h-1.38v4.83c0,1.08-.39,1.6-1.19,1.6h-17.75c-.81,0-1.21-.52-1.21-1.6v-9.07h-1.37v9.07c0,.9.23,1.63.67,2.17.45.54,1.09.82,1.9.82h17.75c.9,0,1.56-.36,1.95-1.08.48.71,1.17,1.08,2.08,1.08.95,0,1.67-.4,2.15-1.18.47.79,1.19,1.18,2.13,1.18.8,0,1.48-.3,2.01-.88.53-.58.81-1.37.81-2.35v-4.59h-1.37Z"/>
      </g>
    </g>
  </g>
</svg>