<svg width="89" height="81" viewBox="0 0 89 81" fill="none" xmlns="http://www.w3.org/2000/svg">
<g id="Arrow 07" clip-path="url(#clip0_1502_13808)">
<path id="Arrow 07_2" d="M73.4315 24.254C73.2732 23.8354 73.2882 23.6605 73.195 23.5116C64.8627 15.0732 54.8125 10.4192 42.8465 10.6254C39.8247 10.67 36.8772 11.4962 34.1403 12.9568C28.2469 16.0366 25.1861 22.3156 26.3587 28.8284C26.9506 32.2262 28.1111 35.3725 30.6532 37.8424C32.2731 37.6796 33.8801 37.4627 35.418 37.4339C37.9272 37.3989 40.1733 38.1699 41.8971 40.095C43.2072 41.4918 43.5982 43.1107 42.9418 44.183C42.0801 45.5905 40.5664 45.9561 39.1534 45.555C37.1888 45.0016 35.2801 44.2062 33.4665 43.3307C32.2979 42.7564 31.2262 41.873 30.1807 41.0976C24.293 43.4906 23.0927 49.8913 27.3021 56.1846C28.2192 56.1915 29.1904 56.1854 30.1206 56.2462C33.5711 56.555 36.4862 57.9639 38.4036 60.9273C39.1359 62.064 39.624 63.3738 38.7493 64.7273C38.0798 65.7457 36.566 66.1113 34.8437 65.6136C32.126 64.7852 29.9417 63.0855 27.9345 61.1717C27.2524 60.4799 26.5703 59.788 25.9423 59.083C16.7418 62.4476 12.0843 72.5389 17.8761 79.9348C17.1602 80.0506 16.5786 80.2482 16.202 80.1107C15.7584 79.9323 15.3988 79.391 15.1734 78.9315C13.2004 74.5537 12.7113 70.1601 15.216 65.843C17.0643 62.5981 19.6617 60.0861 22.835 58.0632C23.2825 57.7837 23.73 57.5043 24.1644 57.171C24.2185 57.1579 24.2465 57.0369 24.3565 56.7819C24.1852 56.3093 24.0418 55.7157 23.7903 55.1483C20.9083 48.1917 21.9422 43.9442 27.8921 38.9662C27.5194 38.3709 27.1207 37.6677 26.6809 37.0315C24.2716 33.216 23.1598 29.0871 23.5488 24.5386C24.1641 17.137 28.9882 11.2887 36.3317 9.0009C40.3213 7.75166 44.3834 7.5129 48.5198 8.05573C58.5168 9.41019 67.115 13.5012 73.9301 21.1068C74.3047 21.4732 74.6383 21.9066 75.0129 22.273C75.08 22.3139 75.2011 22.3417 75.5646 22.4253C75.554 20.4861 74.9747 18.7985 74.4494 17.0979C73.9913 15.4381 73.412 13.7505 72.8607 11.942C74.3055 11.7643 75.0286 12.3892 75.5746 13.2282C76.1596 14.229 76.8528 15.2038 77.1676 16.27C77.9796 19.1578 78.7505 22.1126 79.3052 25.1196C79.7035 27.4792 78.6165 28.4271 76.4766 27.8589C71.9414 26.6128 67.3933 25.3128 62.8451 24.0128C62.1051 23.7918 61.4472 23.4367 60.5469 23.026C61.4886 21.7134 62.4579 21.9361 63.3601 22.118C66.6445 22.9237 69.8898 23.5676 73.4315 24.254ZM36.7364 63.5002C35.3504 59.8944 32.4111 58.1487 29.0201 58.7965C31.2416 60.8869 33.2748 62.9086 36.7364 63.5002ZM40.7106 43.2371C39.1847 40.2362 36.6572 39.2476 33.4375 40.368C35.6629 42.0007 37.7149 43.3896 40.7106 43.2371Z" fill="#F07C0D"/>
</g>
<defs>
<clipPath id="clip0_1502_13808">
<rect width="64.676" height="75.4553" fill="white" transform="translate(15.1858 80.5846) rotate(-103.58)"/>
</clipPath>
</defs>
</svg>
