<svg width="94" height="87" viewBox="0 0 94 87" fill="none" xmlns="http://www.w3.org/2000/svg">
<g id="Arrow 8" clip-path="url(#clip0_1502_13808)">
<path id="Arrow 07" d="M19.6186 24.069C19.826 23.6724 19.8321 23.4969 19.9424 23.3603C29.2259 15.9812 39.7614 12.5651 51.6165 14.2038C54.6112 14.6102 57.4384 15.7836 59.9806 17.5618C65.4624 21.3255 67.7487 27.9261 65.804 34.2514C64.8092 37.5539 63.2801 40.5384 60.4604 42.6859C58.8716 42.3301 57.3022 41.9222 55.7788 41.7093C53.2919 41.3739 50.9696 41.8701 49.0275 43.5748C47.5595 44.8046 46.9773 46.3649 47.5005 47.5082C48.1872 49.0087 49.6463 49.5531 51.0971 49.3242C53.1139 49.0102 55.1042 48.4493 57.0096 47.7975C58.2386 47.3673 59.4084 46.6188 60.5394 45.9742C66.0978 49.0556 66.5225 55.554 61.5893 61.2975C60.6779 61.1944 59.7144 61.0719 58.7836 61.0209C55.321 60.9139 52.2581 61.9633 49.9994 64.6756C49.1361 65.7163 48.4946 66.9583 49.2008 68.4068C49.7434 69.4981 51.2025 70.0425 52.9721 69.7547C55.7694 69.258 58.1417 67.8323 60.3637 66.1729C61.1238 65.5677 61.8839 64.9625 62.5919 64.3379C71.3229 68.7808 74.7375 79.3575 68.1012 86.0061C68.798 86.2068 69.3518 86.4727 69.7421 86.3813C70.2039 86.2574 70.6258 85.7631 70.9047 85.3338C73.388 81.224 74.4001 76.9208 72.4308 72.3346C70.9847 68.8916 68.707 66.0864 65.799 63.6978C65.3882 63.3668 64.9775 63.0357 64.5861 62.6527C64.534 62.6333 64.5207 62.5098 64.442 62.2434C64.6688 61.7948 64.8822 61.2227 65.1999 60.6894C68.8948 54.1283 68.3773 49.7876 63.0669 44.1325C63.5082 43.5861 63.9884 42.9358 64.5012 42.3568C67.3504 38.8576 68.9489 34.8916 69.1078 30.3293C69.3839 22.9073 65.2954 16.523 58.279 13.3717C54.4678 11.6534 50.4637 10.9296 46.292 10.9728C36.2047 11.1195 27.1782 14.1506 19.5008 20.8847C19.085 21.2036 18.7019 21.5939 18.2861 21.9128C18.2146 21.9453 18.091 21.9585 17.7201 21.9978C17.963 20.0739 18.7404 18.4679 19.4657 16.8425C20.1194 15.2496 20.8967 13.6436 21.6608 11.9141C20.2477 11.5646 19.4549 12.0983 18.8124 12.8658C18.1116 13.7894 17.3065 14.674 16.8663 15.6948C15.7141 18.4645 14.5946 21.3056 13.6836 24.2245C13.0054 26.5193 13.971 27.5906 16.1636 27.283C20.8153 26.5894 25.4865 25.8438 30.1577 25.0982C30.9188 24.9674 31.6146 24.6938 32.5576 24.3939C31.7799 22.9779 30.7909 23.0829 29.8734 23.1553C26.5162 23.5616 23.2171 23.8119 19.6186 24.069ZM51.3463 67.4298C53.1543 64.0161 56.2816 62.6351 59.5706 63.6846C57.1146 65.4938 54.8538 67.2573 51.3463 67.4298ZM49.8289 46.8364C51.7034 44.04 54.3312 43.3615 57.3934 44.8596C54.9885 46.2138 52.7848 47.3468 49.8289 46.8364Z" fill="#F07C0D"/>
</g>
<defs>
<clipPath id="clip0_1502_13808">
<rect width="64.676" height="75.4553" fill="white" transform="matrix(0.349591 -0.936902 -0.936902 -0.349591 70.6943 86.9736)"/>
</clipPath>
</defs>
</svg>
