<svg width="172" height="34" viewBox="0 0 172 34" fill="none" xmlns="http://www.w3.org/2000/svg">
<path d="M23.9044 9.60547L19.7208 17.1318C19.5454 17.448 19.7743 17.8366 20.1358 17.8369H22.5401L21.044 19.2246L23.0303 18.1943C23.0713 18.1731 23.1151 18.1577 23.1602 18.1484L24.2667 17.9229C24.2996 17.9161 24.3337 17.9121 24.3673 17.9121H26.7891L28.1143 17.9834C28.1629 17.986 28.2112 17.9953 28.2569 18.0117L28.8126 18.2119C29.395 18.5027 29.7627 19.098 29.7628 19.749V20.123L29.7423 24.1816L25.4776 30.9893L25.4708 31.001H20.6153L20.6397 30.9619L25.4112 23.4814H18.0274C14.9018 23.4811 12.9712 20.0719 14.5792 17.3916L19.2657 9.58105L19.2725 9.56836H23.9249L23.9044 9.60547ZM35.6192 3.03809L30.8477 10.5186H38.2315C41.3569 10.5189 43.2871 13.9282 41.6798 16.6084L36.9932 24.4189L36.9864 24.4316H32.8399L32.9268 20.5078C32.9297 20.3785 32.9825 20.2551 33.0743 20.1641L33.8848 19.3604C33.9798 19.2661 34.1085 19.2143 34.2423 19.2158L34.7823 19.2217C34.9269 19.2234 35.0647 19.2881 35.1583 19.3984L35.6407 19.9668C35.7327 20.0753 35.8667 20.1399 36.0089 20.1436L37.4132 20.1797C37.6871 20.1867 37.9162 19.9711 37.9258 19.6973L38.0528 16.1035C38.0624 15.8321 37.8532 15.6026 37.5821 15.5869L36.2042 15.5078C36.0555 15.4992 35.91 15.557 35.8087 15.666L35.4278 16.0762C35.329 16.1822 35.1888 16.2406 35.044 16.2354L34.6065 16.2188C34.44 16.2127 34.2879 16.1241 34.2003 15.9824L33.6553 15.1016C33.5643 14.9544 33.4026 14.8652 33.2296 14.8652H28.5772C27.7281 14.8652 26.8885 15.0457 26.1143 15.3945L25.0548 15.8711C25.0286 15.8829 25.0033 15.897 24.9796 15.9131L24.5303 16.2178L22.584 16.1631L22.5401 16.1621L22.5635 16.125L30.7813 3.01074L30.7882 2.99902H35.6436L35.6192 3.03809Z" fill="#F07C0D"/>
<path d="M54.2895 25.1566C53.2453 25.1566 52.3055 24.9776 51.4702 24.6196C50.6348 24.2467 49.9784 23.7246 49.5011 23.0533C49.0238 22.3821 48.7851 21.5989 48.7851 20.7039H51.5149C51.5746 21.3752 51.8356 21.9271 52.298 22.3597C52.7754 22.7923 53.4392 23.0086 54.2895 23.0086C55.1696 23.0086 55.8558 22.7997 56.348 22.3821C56.8403 21.9495 57.0864 21.3975 57.0864 20.7263C57.0864 20.2042 56.9298 19.779 56.6165 19.4509C56.3182 19.1227 55.9378 18.8691 55.4754 18.6901C55.0279 18.5111 54.4013 18.3172 53.5958 18.1083C52.5815 17.8398 51.7536 17.5713 51.1121 17.3028C50.4856 17.0194 49.9486 16.5868 49.5011 16.005C49.0536 15.4233 48.8298 14.6476 48.8298 13.678C48.8298 12.783 49.0536 11.9998 49.5011 11.3285C49.9486 10.6573 50.5751 10.1426 51.3806 9.78463C52.1862 9.42662 53.1185 9.24761 54.1776 9.24761C55.6842 9.24761 56.9149 9.628 57.8696 10.3888C58.8392 11.1346 59.3762 12.1639 59.4806 13.4766H56.6613C56.6165 12.9097 56.348 12.4249 55.8558 12.0222C55.3635 11.6194 54.7146 11.418 53.9091 11.418C53.1782 11.418 52.5815 11.6045 52.119 11.9774C51.6566 12.3504 51.4254 12.8874 51.4254 13.5885C51.4254 14.0658 51.5671 14.4611 51.8505 14.7744C52.1489 15.0727 52.5218 15.3114 52.9693 15.4904C53.4168 15.6694 54.0284 15.8633 54.8041 16.0722C55.8334 16.3556 56.6687 16.639 57.3102 16.9224C57.9665 17.2059 58.5184 17.6459 58.966 18.2426C59.4284 18.8243 59.6596 19.6075 59.6596 20.592C59.6596 21.3826 59.4433 22.1285 59.0107 22.8296C58.593 23.5307 57.974 24.0975 57.1535 24.5301C56.348 24.9478 55.3933 25.1566 54.2895 25.1566ZM69.0465 12.4697C69.9863 12.4697 70.8216 12.6711 71.5526 13.0738C72.2984 13.4766 72.8802 14.0733 73.2978 14.8639C73.7304 15.6545 73.9467 16.6092 73.9467 17.7279V25H71.4183V18.1083C71.4183 17.0045 71.1423 16.1617 70.5904 15.5799C70.0385 14.9832 69.2852 14.6849 68.3305 14.6849C67.3758 14.6849 66.615 14.9832 66.0482 15.5799C65.4962 16.1617 65.2203 17.0045 65.2203 18.1083V25H62.6695V8.4421H65.2203V14.1031C65.6529 13.581 66.1973 13.1783 66.8537 12.8948C67.525 12.6114 68.2559 12.4697 69.0465 12.4697ZM76.3502 18.7796C76.3502 17.5415 76.6038 16.4451 77.111 15.4904C77.633 14.5357 78.3341 13.7973 79.2143 13.2752C80.1093 12.7382 81.0938 12.4697 82.1678 12.4697C83.1374 12.4697 83.9802 12.6636 84.6963 13.0515C85.4272 13.4244 86.009 13.8943 86.4416 14.4611V12.6711H89.0147V25H86.4416V23.1652C86.009 23.747 85.4197 24.2318 84.6739 24.6196C83.928 25.0075 83.0778 25.2014 82.1231 25.2014C81.064 25.2014 80.0944 24.9329 79.2143 24.3959C78.3341 23.8439 77.633 23.0832 77.111 22.1136C76.6038 21.129 76.3502 20.0177 76.3502 18.7796ZM86.4416 18.8243C86.4416 17.9741 86.2626 17.2357 85.9045 16.6092C85.5615 15.9827 85.1065 15.5053 84.5396 15.1771C83.9728 14.849 83.3612 14.6849 82.7048 14.6849C82.0485 14.6849 81.4369 14.849 80.87 15.1771C80.3032 15.4904 79.8408 15.9603 79.4828 16.5868C79.1397 17.1984 78.9681 17.9293 78.9681 18.7796C78.9681 19.6299 79.1397 20.3757 79.4828 21.0172C79.8408 21.6586 80.3032 22.1508 80.87 22.4939C81.4518 22.8221 82.0634 22.9862 82.7048 22.9862C83.3612 22.9862 83.9728 22.8221 84.5396 22.4939C85.1065 22.1658 85.5615 21.6884 85.9045 21.0619C86.2626 20.4205 86.4416 19.6746 86.4416 18.8243ZM97.243 18.8467L102.926 25H99.4806L94.9159 19.697V25H92.3651V8.4421H94.9159V18.0636L99.3911 12.6711H102.926L97.243 18.8467ZM110.102 25.2014C108.939 25.2014 107.887 24.9403 106.948 24.4182C106.008 23.8812 105.269 23.1354 104.732 22.1807C104.195 21.2111 103.927 20.0923 103.927 18.8243C103.927 17.5713 104.203 16.46 104.755 15.4904C105.307 14.5208 106.06 13.7749 107.015 13.2528C107.969 12.7307 109.036 12.4697 110.214 12.4697C111.393 12.4697 112.459 12.7307 113.414 13.2528C114.369 13.7749 115.122 14.5208 115.674 15.4904C116.226 16.46 116.502 17.5713 116.502 18.8243C116.502 20.0774 116.218 21.1887 115.652 22.1583C115.085 23.1279 114.309 23.8812 113.325 24.4182C112.355 24.9403 111.281 25.2014 110.102 25.2014ZM110.102 22.9862C110.759 22.9862 111.37 22.8296 111.937 22.5163C112.519 22.2031 112.989 21.7332 113.347 21.1067C113.705 20.4801 113.884 19.7194 113.884 18.8243C113.884 17.9293 113.712 17.176 113.369 16.5644C113.026 15.9379 112.571 15.468 112.004 15.1548C111.438 14.8415 110.826 14.6849 110.17 14.6849C109.513 14.6849 108.902 14.8415 108.335 15.1548C107.783 15.468 107.343 15.9379 107.015 16.5644C106.686 17.176 106.522 17.9293 106.522 18.8243C106.522 20.152 106.858 21.1812 107.529 21.9122C108.215 22.6282 109.073 22.9862 110.102 22.9862ZM123.499 25.2014C122.529 25.2014 121.656 25.0298 120.881 24.6867C120.12 24.3287 119.516 23.8514 119.068 23.2547C118.621 22.6431 118.382 21.9644 118.352 21.2185H120.993C121.037 21.7406 121.283 22.1807 121.731 22.5387C122.193 22.8818 122.768 23.0533 123.454 23.0533C124.17 23.0533 124.722 22.9191 125.11 22.6506C125.512 22.3671 125.714 22.0091 125.714 21.5765C125.714 21.1141 125.49 20.771 125.043 20.5473C124.61 20.3235 123.916 20.0774 122.962 19.8089C122.037 19.5553 121.283 19.3092 120.702 19.0705C120.12 18.8318 119.613 18.4663 119.18 17.9741C118.762 17.4818 118.554 16.8329 118.554 16.0274C118.554 15.3711 118.748 14.7744 119.135 14.2374C119.523 13.6854 120.075 13.2528 120.791 12.9396C121.522 12.6263 122.357 12.4697 123.297 12.4697C124.699 12.4697 125.826 12.8277 126.676 13.5437C127.541 14.2448 128.004 15.207 128.063 16.4302H125.512C125.468 15.8782 125.244 15.4382 124.841 15.11C124.438 14.7818 123.894 14.6177 123.208 14.6177C122.536 14.6177 122.022 14.7445 121.664 14.9981C121.306 15.2517 121.127 15.5874 121.127 16.005C121.127 16.3332 121.246 16.6092 121.485 16.8329C121.723 17.0567 122.014 17.2357 122.357 17.3699C122.701 17.4893 123.208 17.6459 123.879 17.8398C124.774 18.0785 125.505 18.3246 126.072 18.5782C126.654 18.8169 127.153 19.1749 127.571 19.6522C127.989 20.1296 128.205 20.7636 128.22 21.5542C128.22 22.2553 128.026 22.8818 127.638 23.4337C127.25 23.9856 126.698 24.4182 125.982 24.7315C125.281 25.0448 124.453 25.2014 123.499 25.2014ZM137.353 12.4697C138.293 12.4697 139.128 12.6711 139.859 13.0738C140.605 13.4766 141.187 14.0733 141.604 14.8639C142.037 15.6545 142.253 16.6092 142.253 17.7279V25H139.725V18.1083C139.725 17.0045 139.449 16.1617 138.897 15.5799C138.345 14.9832 137.592 14.6849 136.637 14.6849C135.682 14.6849 134.922 14.9832 134.355 15.5799C133.803 16.1617 133.527 17.0045 133.527 18.1083V25H130.976V8.4421H133.527V14.1031C133.959 13.581 134.504 13.1783 135.16 12.8948C135.832 12.6114 136.562 12.4697 137.353 12.4697ZM156.605 12.6711L149.042 30.7953H146.402L148.908 24.7986L144.053 12.6711H146.894L150.363 22.0688L153.965 12.6711H156.605Z" fill="#F07C0D"/>
</svg>
